<?xml version="1.0" standalone="no"?>
<!DOCTYPE svg PUBLIC "-//W3C//DTD SVG 20010904//EN"
 "http://www.w3.org/TR/2001/REC-SVG-20010904/DTD/svg10.dtd">
<svg version="1.0" xmlns="http://www.w3.org/2000/svg"
 width="1140.000000pt" height="855.000000pt" viewBox="0 0 1140.000000 855.000000"
 preserveAspectRatio="xMidYMid meet">

<g transform="translate(0.000000,855.000000) scale(0.100000,-0.100000)"
fill="#000000" stroke="none">
<path d="M8255 7984 c-469 -72 -1033 -408 -1352 -804 -311 -387 -435 -735
-378 -1063 30 -173 104 -352 218 -530 l49 -78 -55 -52 c-136 -128 -674 -735
-837 -944 l-25 -33 -95 107 c-173 195 -520 575 -732 801 l-210 222 23 93 c27
110 32 300 10 387 -26 107 -75 190 -178 306 -54 61 -206 231 -338 380 -320
358 -706 800 -885 1011 l-144 171 -39 -30 c-33 -27 -36 -32 -24 -47 8 -9 243
-295 523 -636 279 -341 562 -685 629 -764 162 -194 157 -187 162 -234 11 -93
-64 -123 -173 -70 -122 59 -512 516 -1124 1313 -112 146 -206 268 -209 272 -3
4 -24 -8 -46 -26 l-40 -34 46 -58 c25 -33 155 -201 289 -374 280 -362 648
-834 827 -1061 137 -175 161 -225 130 -273 -49 -74 -164 9 -401 288 -186 220
-610 755 -936 1184 -68 89 -127 162 -133 162 -18 0 -68 -42 -64 -54 13 -34
729 -1032 1013 -1411 158 -212 192 -266 224 -352 24 -66 24 -111 -1 -126 -57
-36 -317 195 -580 513 -211 256 -495 657 -763 1078 -43 67 -81 122 -83 122 -3
0 -18 -9 -34 -20 l-28 -21 35 -97 c97 -270 348 -701 621 -1067 278 -373 606
-709 793 -813 203 -112 435 -94 627 49 29 21 57 39 62 39 20 0 214 -196 366
-369 180 -206 310 -364 516 -628 l150 -192 -179 -223 c-360 -451 -813 -1042
-1127 -1473 -76 -104 -155 -212 -175 -240 -322 -438 -756 -1102 -833 -1275
-31 -70 -29 -179 5 -252 51 -110 144 -184 263 -208 200 -41 433 94 611 355 34
50 112 185 174 300 387 719 926 1636 1413 2405 72 113 132 207 134 210 6 6 21
-13 180 -239 541 -768 1024 -1567 1391 -2301 161 -323 184 -355 285 -404 164
-80 350 -19 428 140 31 62 34 75 34 163 0 181 -84 371 -330 747 -322 492 -981
1323 -1708 2154 -31 36 -57 68 -57 72 0 3 46 73 102 155 288 420 528 732 721
938 l74 80 234 1 c255 0 379 14 537 60 275 80 490 236 644 469 262 395 402
852 402 1315 0 257 -31 422 -110 587 -38 81 -119 175 -173 203 -79 40 -192 48
-346 24z m5 -169 c0 -3 -33 -21 -72 -41 -308 -154 -686 -428 -895 -648 -411
-432 -599 -856 -537 -1216 6 -38 -37 56 -53 115 -24 87 -28 239 -9 339 61 322
230 613 515 889 221 213 474 373 763 481 72 27 238 76 286 86 1 0 2 -2 2 -5z
m469 -1000 c2 -202 -100 -478 -256 -698 -32 -45 -103 -127 -158 -182 -234
-234 -508 -361 -815 -379 l-95 -6 88 20 c212 47 385 120 549 231 118 80 311
273 400 399 74 104 185 318 219 420 30 93 48 186 50 255 1 85 17 33 18 -60z
m-5081 -1044 c144 -120 263 -203 359 -252 77 -40 85 -42 151 -37 77 6 181 50
262 110 25 19 63 47 84 64 l39 29 -24 -43 c-43 -78 -159 -186 -244 -228 -98
-48 -164 -55 -255 -24 -116 38 -228 114 -363 248 -103 101 -195 219 -239 305
l-30 61 78 -73 c44 -41 125 -113 182 -160z m2705 -1155 c-44 -46 -124 -142
-177 -213 -54 -70 -103 -128 -109 -128 -25 0 -13 26 50 105 64 81 294 320 308
320 4 0 -29 -38 -72 -84z m-493 -669 c0 -4 -23 -44 -52 -90 -78 -124 -269
-445 -471 -792 -637 -1097 -892 -1506 -1151 -1850 -141 -188 -313 -374 -410
-443 -33 -24 -17 -4 57 70 228 229 462 583 1062 1613 470 806 622 1057 830
1376 98 149 107 160 120 143 8 -11 15 -22 15 -27z m500 -417 c273 -338 552
-761 1090 -1656 299 -497 440 -718 511 -799 34 -39 37 -45 14 -27 -138 106
-433 537 -973 1417 -311 508 -553 886 -741 1160 -55 80 -57 85 -20 45 23 -25
76 -88 119 -140z"/>
</g>
</svg>
