<?xml version="1.0" encoding="UTF-8" standalone="no" ?>
<!DOCTYPE svg PUBLIC "-//W3C//DTD SVG 1.1//EN" "http://www.w3.org/Graphics/SVG/1.1/DTD/svg11.dtd">
<svg xmlns="http://www.w3.org/2000/svg" xmlns:xlink="http://www.w3.org/1999/xlink" version="1.1" width="1100" height="1080" viewBox="0 0 1100 1080" xml:space="preserve">
<desc>Created with Fabric.js 5.2.4</desc>
<defs>
</defs>
<g transform="matrix(1 0 0 1 550 540)" id="e450a0e8-ed40-4f81-9967-b011b7fe3933"  >
<rect style="stroke: none; stroke-width: 1; stroke-dasharray: none; stroke-linecap: butt; stroke-dashoffset: 0; stroke-linejoin: miter; stroke-miterlimit: 4; fill: rgb(255,255,255); fill-rule: nonzero; opacity: 1; visibility: hidden;" vector-effect="non-scaling-stroke"  x="-550" y="-540" rx="0" ry="0" width="1100" height="1080" />
</g>
<g transform="matrix(Infinity NaN NaN Infinity 0 0)" id="aba1ec9f-85f4-4b88-9657-ee579fcad737"  >
</g>
<g transform="matrix(1 0 0 1 529.44 540)"  >
<g style="" vector-effect="non-scaling-stroke"   >
		<g transform="matrix(1.61 0 0 1.61 0 0)"  >
<path style="stroke: none; stroke-width: 1; stroke-dasharray: none; stroke-linecap: butt; stroke-dashoffset: 0; stroke-linejoin: miter; stroke-miterlimit: 4; fill: rgb(234,73,73); fill-rule: nonzero; opacity: 1;" vector-effect="non-scaling-stroke"  transform=" translate(-248.08, -248.08)" d="M 248.082 0.003 C 111.07 0.003 0 111.063 0 248.085 C 0 385.086 111.07 496.155 248.082 496.155 C 385.08799999999997 496.155 496.158 385.08599999999996 496.158 248.08499999999998 C 496.158 111.062 385.088 0.003 248.082 0.003 z" stroke-linecap="round" />
</g>
		<g transform="matrix(1.61 0 0 1.61 0.35 0)"  >
<path style="stroke: none; stroke-width: 1; stroke-dasharray: none; stroke-linecap: butt; stroke-dashoffset: 0; stroke-linejoin: miter; stroke-miterlimit: 4; fill: rgb(237,201,47); fill-rule: nonzero; opacity: 1;" vector-effect="non-scaling-stroke"  transform=" translate(-248.29, -248.08)" d="M 248.295 137.537 C 187.242 137.537 137.75 187.025 137.75 248.08100000000002 C 137.75 309.127 187.242 358.62 248.29500000000002 358.62 C 309.344 358.62 358.837 309.127 358.837 248.08100000000002 C 358.837 187.026 309.344 137.537 248.295 137.537 z" stroke-linecap="round" />
</g>
		<g transform="matrix(1.61 0 0 1.61 0.35 0)"  >
<path style="stroke: none; stroke-width: 1; stroke-dasharray: none; stroke-linecap: butt; stroke-dashoffset: 0; stroke-linejoin: miter; stroke-miterlimit: 4; fill: rgb(244,214,91); fill-rule: nonzero; opacity: 1;" vector-effect="non-scaling-stroke"  transform=" translate(-248.29, -248.08)" d="M 248.295 171.983 C 206.266 171.983 172.19599999999997 206.05 172.19599999999997 248.08100000000002 C 172.19599999999997 290.105 206.265 324.175 248.29499999999996 324.175 C 290.31999999999994 324.175 324.39 290.105 324.39 248.08100000000002 C 324.39 206.05 290.32 171.983 248.295 171.983 z" stroke-linecap="round" />
</g>
		<g transform="matrix(1.61 0 0 1.61 150.15 0.31)"  >
<circle style="stroke: none; stroke-width: 1; stroke-dasharray: none; stroke-linecap: butt; stroke-dashoffset: 0; stroke-linejoin: miter; stroke-miterlimit: 4; fill: rgb(244,214,91); fill-rule: nonzero; opacity: 1;" vector-effect="non-scaling-stroke"  cx="0" cy="0" r="9.804" />
</g>
		<g transform="matrix(1.61 0 0 1.61 -148.73 0.31)"  >
<circle style="stroke: none; stroke-width: 1; stroke-dasharray: none; stroke-linecap: butt; stroke-dashoffset: 0; stroke-linejoin: miter; stroke-miterlimit: 4; fill: rgb(244,214,91); fill-rule: nonzero; opacity: 1;" vector-effect="non-scaling-stroke"  cx="0" cy="0" r="9.804" />
</g>
		<g transform="matrix(1.61 0 0 1.61 106.37 105.97)"  >
<circle style="stroke: none; stroke-width: 1; stroke-dasharray: none; stroke-linecap: butt; stroke-dashoffset: 0; stroke-linejoin: miter; stroke-miterlimit: 4; fill: rgb(244,214,91); fill-rule: nonzero; opacity: 1;" vector-effect="non-scaling-stroke"  cx="0" cy="0" r="9.804" />
</g>
		<g transform="matrix(1.61 0 0 1.61 -104.95 -105.37)"  >
<circle style="stroke: none; stroke-width: 1; stroke-dasharray: none; stroke-linecap: butt; stroke-dashoffset: 0; stroke-linejoin: miter; stroke-miterlimit: 4; fill: rgb(244,214,91); fill-rule: nonzero; opacity: 1;" vector-effect="non-scaling-stroke"  cx="0" cy="0" r="9.804" />
</g>
		<g transform="matrix(1.61 0 0 1.61 0.71 149.74)"  >
<circle style="stroke: none; stroke-width: 1; stroke-dasharray: none; stroke-linecap: butt; stroke-dashoffset: 0; stroke-linejoin: miter; stroke-miterlimit: 4; fill: rgb(244,214,91); fill-rule: nonzero; opacity: 1;" vector-effect="non-scaling-stroke"  cx="0" cy="0" r="9.803" />
</g>
		<g transform="matrix(1.61 0 0 1.61 0.71 -149.13)"  >
<circle style="stroke: none; stroke-width: 1; stroke-dasharray: none; stroke-linecap: butt; stroke-dashoffset: 0; stroke-linejoin: miter; stroke-miterlimit: 4; fill: rgb(244,214,91); fill-rule: nonzero; opacity: 1;" vector-effect="non-scaling-stroke"  cx="0" cy="0" r="9.803" />
</g>
		<g transform="matrix(1.61 0 0 1.61 -104.95 105.97)"  >
<circle style="stroke: none; stroke-width: 1; stroke-dasharray: none; stroke-linecap: butt; stroke-dashoffset: 0; stroke-linejoin: miter; stroke-miterlimit: 4; fill: rgb(244,214,91); fill-rule: nonzero; opacity: 1;" vector-effect="non-scaling-stroke"  cx="0" cy="0" r="9.803" />
</g>
		<g transform="matrix(1.61 0 0 1.61 106.39 -105.37)"  >
<circle style="stroke: none; stroke-width: 1; stroke-dasharray: none; stroke-linecap: butt; stroke-dashoffset: 0; stroke-linejoin: miter; stroke-miterlimit: 4; fill: rgb(244,214,91); fill-rule: nonzero; opacity: 1;" vector-effect="non-scaling-stroke"  cx="0" cy="0" r="9.803" />
</g>
		<g transform="matrix(1.61 0 0 1.61 -267.81 22.79)"  >
<path style="stroke: none; stroke-width: 1; stroke-dasharray: none; stroke-linecap: butt; stroke-dashoffset: 0; stroke-linejoin: miter; stroke-miterlimit: 4; fill: rgb(237,201,47); fill-rule: nonzero; opacity: 1;" vector-effect="non-scaling-stroke"  transform=" translate(-81.99, -262.22)" d="M 85.762 193.745 C 85.744 191.151 76.349 191.219 76.364 193.811 L 72.885 327.967 C 72.903 330.55899999999997 76.99000000000001 332.633 82.02000000000001 332.599 C 87.04200000000002 332.562 91.108 330.429 91.08800000000001 327.837 L 85.762 193.745 z" stroke-linecap="round" />
</g>
		<g transform="matrix(1.61 0 0 1.61 -270.4 -85)"  >
<path style="stroke: none; stroke-width: 1; stroke-dasharray: none; stroke-linecap: butt; stroke-dashoffset: 0; stroke-linejoin: miter; stroke-miterlimit: 4; fill: rgb(237,201,47); fill-rule: nonzero; opacity: 1;" vector-effect="non-scaling-stroke"  transform=" translate(-80.38, -195.36)" d="M 103.408 172.171 C 103.391 169.786 102.021 167.869 100.351 167.882 C 98.681 167.895 97.335 169.832 97.352 172.214 L 97.643 190.739 C 95.787 190.352 93.384 190.005 90.304 189.78300000000002 L 90.023 166.872 C 90.00699999999999 164.49200000000002 88.639 162.573 86.967 162.585 C 85.294 162.595 83.952 164.53300000000002 83.967 166.91400000000002 L 84.249 189.555 C 82.78699999999999 189.542 81.22399999999999 189.55 79.536 189.595 C 78.682 189.617 77.864 189.648 77.061 189.684 L 76.784 167.25 C 76.768 164.869 75.40100000000001 162.949 73.727 162.959 C 72.054 162.969 70.714 164.906 70.729 167.292 L 71.014 190.151 C 67.90299999999999 190.49300000000002 65.372 190.946 63.382 191.405 L 63.089999999999996 172.448 C 63.068999999999996 170.06400000000002 61.702999999999996 168.14600000000002 60.031 168.157 C 58.36 168.168 57.015 170.10500000000002 57.039 172.49 L 57.35 193.865 C 57.35 194.23700000000002 57.396 194.595 57.459 194.941 C 57.837 217.4 62.783 228.265 80.742 228.143 C 98.64500000000001 228.021 103.471 217.15800000000002 103.57000000000001 194.841 C 103.65700000000001 194.429 103.71600000000001 193.997 103.71300000000001 193.544 L 103.408 172.171 z" stroke-linecap="round" />
</g>
		<g transform="matrix(1.61 0 0 1.61 268.49 23.5)"  >
<path style="stroke: none; stroke-width: 1; stroke-dasharray: none; stroke-linecap: butt; stroke-dashoffset: 0; stroke-linejoin: miter; stroke-miterlimit: 4; fill: rgb(237,201,47); fill-rule: nonzero; opacity: 1;" vector-effect="non-scaling-stroke"  transform=" translate(-414.6, -262.65)" d="M 420.555 195.641 C 420.577 193.04299999999998 418.496 190.91899999999998 415.901 190.894 C 413.305 190.872 411.18 192.95600000000002 411.159 195.552 L 405.493 329.625 C 405.469 332.222 409.526 334.36 414.549 334.412 C 419.578 334.459 423.676 332.39 423.698 329.79999999999995 L 420.555 195.641 z" stroke-linecap="round" />
</g>
		<g transform="matrix(1.61 0 0 1.61 269.41 -86.51)"  >
<path style="stroke: none; stroke-width: 1; stroke-dasharray: none; stroke-linecap: butt; stroke-dashoffset: 0; stroke-linejoin: miter; stroke-miterlimit: 4; fill: rgb(237,201,47); fill-rule: nonzero; opacity: 1;" vector-effect="non-scaling-stroke"  transform=" translate(-415.17, -194.42)" d="M 415.169 161.745 C 401.941 161.745 391.21999999999997 181.203 391.21999999999997 203.155 C 391.21999999999997 216.383 401.94199999999995 227.104 415.169 227.104 C 428.39599999999996 227.104 439.11699999999996 216.382 439.11699999999996 203.155 C 439.117 181.702 428.395 161.745 415.169 161.745 z" stroke-linecap="round" />
</g>
</g>
</g>
</svg>